<svg xmlns="http://www.w3.org/2000/svg" xmlns:xlink="http://www.w3.org/1999/xlink" contentStyleType="text/css" data-diagram-type="DESCRIPTION" height="369px" preserveAspectRatio="none" style="width:643px;height:369px;background:#FFFFFF;" version="1.1" viewBox="0 0 643 369" width="643px" zoomAndPan="magnify"><title>CU-03: Calcular Ruta &#211;ptima</title><defs/><g><g class="title" data-source-line="35"><text fill="#000000" font-family="DejaVu Sans" font-size="14" font-weight="bold" lengthAdjust="spacing" textLength="225.4287" x="201.9788" y="22.9951">CU-03: Calcular Ruta &#211;ptima</text></g><!--cluster Aplicaci?n M?vil ChuroViaje (motor de ruteo)--><g class="cluster" data-entity="Aplicaci.n M.vil ChuroViaje .motor de ruteo." data-source-line="41" data-uid="ent0005" id="cluster_Aplicaci.n M.vil ChuroViaje .motor de ruteo."><rect fill="none" height="290" rx="2.5" ry="2.5" style="stroke:#2F5D8A;stroke-width:1;" width="346" x="120" y="73.3628"/><text fill="#000000" font-family="DejaVu Sans" font-size="13" font-weight="bold" lengthAdjust="spacing" textLength="330.6113" x="127.6943" y="87.4297">Aplicaci&#243;n M&#243;vil ChuroViaje (motor de ruteo)</text></g><!--entity CU03--><g class="entity" data-entity="CU03" data-source-line="42" data-uid="ent0006" id="entity_CU03"><ellipse cx="293.0768" cy="153.1664" fill="#EAF2FB" rx="91.0768" ry="46.3036" style="stroke:#2F5D8A;stroke-width:0.5;"/><text fill="#000000" font-family="DejaVu Sans" font-size="13" lengthAdjust="spacing" textLength="39.8252" x="273.1642" y="123.1887">CU-03</text><text fill="#000000" font-family="DejaVu Sans" font-size="13" lengthAdjust="spacing" textLength="139.3882" x="223.3827" y="138.3215">Calcular Ruta &#211;ptima</text><line style="stroke:#2F5D8A;stroke-width:1;" x1="205.9962" x2="380.1574" y1="141.3874" y2="141.3874"/><text fill="#000000" font-family="DejaVu Sans" font-size="13" font-style="italic" lengthAdjust="spacing" textLength="132.6724" x="226.7406" y="157.4543">puntos de extensi&#243;n</text><text fill="#000000" font-family="DejaVu Sans" font-size="13" lengthAdjust="spacing" textLength="120.1675" x="232.9931" y="172.5871">Navegaci&#243;n activa</text></g><!--entity CU04--><g class="entity" data-entity="CU04" data-source-line="47" data-uid="ent0007" id="entity_CU04"><ellipse cx="292.762" cy="324.1267" fill="#EAF2FB" rx="68.262" ry="22.2639" style="stroke:#2F5D8A;stroke-width:0.5;"/><text fill="#000000" font-family="DejaVu Sans" font-size="13" lengthAdjust="spacing" textLength="39.8252" x="272.8494" y="317.4142">CU-04</text><text fill="#000000" font-family="DejaVu Sans" font-size="13" lengthAdjust="spacing" textLength="102.5337" x="241.4952" y="332.547">Recalcular Ruta</text></g><!--entity Conductor--><g class="entity" data-entity="Conductor" data-source-line="37" data-uid="ent0002" id="entity_Conductor"><ellipse cx="39.6521" cy="131.8628" fill="#FFFFFF" rx="16" ry="16" style="stroke:#2F5D8A;stroke-width:0.5;"/><path d="M39.6521,151.8628 C43.6521,151.8628 46.6521,151.8628 50.6521,147.8628 C58.6521,147.8628 66.6521,155.8628 66.6521,163.8628 L66.6521,167.8628 C66.6521,171.8628 62.6521,175.8628 58.6521,175.8628 L20.6521,175.8628 C16.6521,175.8628 12.6521,171.8628 12.6521,167.8628 L12.6521,163.8628 C12.6521,155.8628 20.6521,147.8628 28.6521,147.8628 C32.6521,151.8628 35.6521,151.8628 39.6521,151.8628" fill="#FFFFFF" style="stroke:#2F5D8A;stroke-width:0.5;"/><text fill="#000000" font-family="DejaVu Sans" font-size="13" lengthAdjust="spacing" textLength="67.3042" x="6" y="188.4297">Conductor</text></g><!--entity Motor--><g class="entity" data-entity="Motor" data-source-line="38" data-uid="ent0003" id="entity_Motor"><ellipse cx="574.6399" cy="76.4956" fill="#FFFFFF" rx="16" ry="16" style="stroke:#2F5D8A;stroke-width:0.5;"/><path d="M574.6399,96.4956 C578.6399,96.4956 581.6399,96.4956 585.6399,92.4956 C593.6399,92.4956 601.6399,100.4956 601.6399,108.4956 L601.6399,112.4956 C601.6399,116.4956 597.6399,120.4956 593.6399,120.4956 L555.6399,120.4956 C551.6399,120.4956 547.6399,116.4956 547.6399,112.4956 L547.6399,108.4956 C547.6399,100.4956 555.6399,92.4956 563.6399,92.4956 C567.6399,96.4956 570.6399,96.4956 574.6399,96.4956" fill="#FFFFFF" style="stroke:#2F5D8A;stroke-width:0.5;"/><text fill="#000000" font-family="DejaVu Sans" font-size="13" lengthAdjust="spacing" textLength="115.2798" x="517" y="133.0625">Motor core (C++)</text><text fill="#000000" font-family="DejaVu Sans" font-size="13" font-style="italic" lengthAdjust="spacing" textLength="66.9297" x="541.175" y="56.9297">&#171;sistema&#187;</text></g><!--entity Mapbox--><g class="entity" data-entity="Mapbox" data-source-line="39" data-uid="ent0004" id="entity_Mapbox"><ellipse cx="574.6931" cy="202.4956" fill="#FFFFFF" rx="16" ry="16" style="stroke:#2F5D8A;stroke-width:0.5;"/><path d="M574.6931,222.4956 C578.6931,222.4956 581.6931,222.4956 585.6931,218.4956 C593.6931,218.4956 601.6931,226.4956 601.6931,234.4956 L601.6931,238.4956 C601.6931,242.4956 597.6931,246.4956 593.6931,246.4956 L555.6931,246.4956 C551.6931,246.4956 547.6931,242.4956 547.6931,238.4956 L547.6931,234.4956 C547.6931,226.4956 555.6931,218.4956 563.6931,218.4956 C567.6931,222.4956 570.6931,222.4956 574.6931,222.4956" fill="#FFFFFF" style="stroke:#2F5D8A;stroke-width:0.5;"/><text fill="#000000" font-family="DejaVu Sans" font-size="13" lengthAdjust="spacing" textLength="51.3335" x="549.0264" y="259.0625">Mapbox</text><text fill="#000000" font-family="DejaVu Sans" font-size="13" font-style="italic" lengthAdjust="spacing" textLength="121.3862" x="514" y="182.9297">&#171;sistema externo&#187;</text></g><!--link Conductor to CU03--><g class="link" data-entity-1="Conductor" data-entity-2="CU03" data-source-line="50" data-uid="lnk8" id="link_Conductor_CU03"><path d="M73.12,153.3628 C105.62,153.3628 150.99,153.3628 195.8,153.3628" fill="none" id="Conductor-to-CU03" style="stroke:#2F5D8A;stroke-width:1;"/><polygon fill="#2F5D8A" points="201.8,153.3628,192.8,149.3628,196.8,153.3628,192.8,157.3628,201.8,153.3628" style="stroke:#2F5D8A;stroke-width:1;"/></g><!--link CU03 to Motor--><g class="link" data-entity-1="CU03" data-entity-2="Motor" data-source-line="51" data-uid="lnk9" id="link_CU03_Motor"><path d="M376.72,134.7128 C421.8,124.5528 470.5668,113.5618 510.8168,104.4918" fill="none" id="CU03-to-Motor" style="stroke:#2F5D8A;stroke-width:1;"/><polygon fill="#2F5D8A" points="516.67,103.1728,507.0108,101.2491,511.7923,104.2719,508.7695,109.0534,516.67,103.1728" style="stroke:#2F5D8A;stroke-width:1;"/></g><!--link CU03 to Mapbox--><g class="link" data-entity-1="CU03" data-entity-2="Mapbox" data-source-line="52" data-uid="lnk10" id="link_CU03_Mapbox"><path d="M376.72,172.0128 C420.35,181.8428 467.0669,192.3732 506.8969,201.3532" fill="none" id="CU03-to-Mapbox" style="stroke:#2F5D8A;stroke-width:1;"/><polygon fill="#2F5D8A" points="512.75,202.6728,504.8501,196.7913,507.8724,201.5731,503.0906,204.5954,512.75,202.6728" style="stroke:#2F5D8A;stroke-width:1;"/></g><!--link CU04 to CU03--><g class="link" data-entity-1="CU04" data-entity-2="CU03" data-source-line="53" data-uid="lnk11" id="link_CU04_CU03"><path d="M293,301.6528 C293,275.8528 293,239.0528 293,206.0428" fill="none" id="CU04-to-CU03" style="stroke:#2F5D8A;stroke-width:1;stroke-dasharray:7,7;"/><polygon fill="#2F5D8A" points="293,200.0428,289,209.0428,293,205.0428,297,209.0428,293,200.0428" style="stroke:#2F5D8A;stroke-width:1;"/><text fill="#000000" font-family="DejaVu Sans" font-size="13" lengthAdjust="spacing" textLength="61.1851" x="226.0334" y="230.4297">&#171;extend&#187;</text><path d="M131.5,239.4956 L131.5,279.4956 L381.5,279.4956 L381.5,249.4956 L371.5,239.4956 L131.5,239.4956" fill="#FFF8E1" style="stroke:#C9A227;stroke-width:0.5;"/><path d="M371.5,239.4956 L371.5,249.4956 L381.5,249.4956 L371.5,239.4956" fill="#FFF8E1" style="stroke:#C9A227;stroke-width:0.5;"/><text fill="#000000" font-family="DejaVu Sans" font-size="13" lengthAdjust="spacing" textLength="224.7261" x="137.5" y="256.5625">Condici&#243;n: {se detecta congesti&#243;n</text><text fill="#000000" font-family="DejaVu Sans" font-size="13" lengthAdjust="spacing" textLength="229.252" x="137.5" y="271.6953">sobre el trayecto de la ruta activa}</text></g><!--SRC=[dLFBJXin5DtxAww61I0qRHXI5Q8eKXY8r0Kie65LgRhCt0m6ntTgUtWKyHNz53w17wlj2M7IfYmwc_5z-9npZ-rDoATfRsy0EQgYKMZWh748Bxzg9-SeDc7Ia7OqW5xstT0FIE7OrbJ8cIoma2_F6ahoUotRi9XQXgq0k0iOWVUtFSGNQnkFy3NjPGUmjU5pGj7CWMCmihfoK4f3XPEiXRsHkaQ3Sx1NMFATr1NCK5dgL4gQOQFSXBKxnJb1SaJNUD70EMgRhEyxbpy9TlSwnHgB6wpet3qeWi2Ekb9T5YmScxQCTsHvtYqsbWgq18y2uD0ZLOORNUQisC36yNYIJGv3XKr9Pf7D9f-EziS-EpQ6xrQJJntefPOMV2r472bAksHLhcoFij_P-fVQIVnMC3IxVupcE_UFT_y4pm_6MVPv1MBDa6z5HHNfyZyO5fF7mymydt3IUHFUlS6YTIJ9MPTDM2Q05fRHQ_c4mwzWG_u2x-ninwusEHnQQHtDSJHQTcDzoVTjJro-DG7TEpAQVRDuEyjaNAlbYpbvURwL2lAhnl25n6jFEOzC_WMPnX5xzc3EwotBfxszG9N4GSNwETDK3EMeRhHhdsAGeMtW6twK8t6AjrGj-FqGyXQJ3aD4xd_JPpxiWBTMJNlzuFNICaZJKTGaeh0GHQCwOVGan7tuqFR2m5iKDPNUcNZ3M8EI-iRB2D0oQXl0evTJaWlE-UFG5LaN2hxBygK_7LBW33xuEeSn5GRBS37JamWNAw2Btm00]--></g></svg>